Title                            : Tucker & Dale vs Evil
Year                             : 2010
Genre                            : Comedy | Horror
iMDB URL                         : http://www.imdb.com/title/tt1465522/

Complete name                    : Tucker.and.Dale.vs.Evil.2010.BRRIP.720P.H264-ZEKTORM.mp4
Format                           : MPEG-4
Format profile                   : Base Media
Codec ID                         : isom
File size                        : 1.95 GiB
Duration                         : 1h 28mn
Overall bit rate                 : 3158 Kbps

Video
ID                               : 1
Format                           : AVC
Format/Info                      : Advanced Video Codec
Format profile                   : High@L4.0
Format settings, CABAC           : Yes
Format settings, ReFrames        : 12 frames
Codec ID                         : avc1
Codec ID/Info                    : Advanced Video Coding
Duration                         : 1h 28mn
Bit rate mode                    : Variable
Bit rate                         : 2945 Kbps
Width                            : 1280 pixels
Height                           : 544 pixels
Display aspect ratio             : 2.35
Frame rate mode                  : Constant
Frame rate                       : 23.976 fps
Resolution                       : 24 bits
Colorimetry                      : 4:2:0
Scan type                        : Progressive
Bits/(Pixel*Frame)               : 0.176
Stream size                      : 1.82 GiB (93%)
Title                            : Video
Writing library                  : x264

Audio
ID                               : 2
Format                           : AAC
Format/Info                      : Advanced Audio Codec
Format version                   : Version 4
Format profile                   : LC
Format settings, SBR             : Yes
Format settings, PS              : No
Codec ID                         : 40
Duration                         : 1h 28mn
Bit rate mode                    : Variable
Bit rate                         : 212 Kbps
Maximum bit rate                 : 273 Kbps
Channel(s)                       : 6 channels
Channel positions                : Front: L C R, Rear: L R, LFE
Sampling rate                    : 48.0 KHz
Resolution                       : 16 bits
Stream size                      : 134 MiB (7%)
Title                            : English
Language                         : English


Screenshots:

[img]http://img848.imageshack.us/img848/4366/snaptdve1.png[/img]

[img]http://img585.imageshack.us/img585/1058/snaptdve2.png[/img]

[img]http://img707.imageshack.us/img707/6294/snaptdve3.png[/img]

[img]http://img832.imageshack.us/img832/1858/snaptdve4.png[/img]
